#include "hUGEDriver.h"
#include <stddef.h>

static const unsigned char order_cnt = 2;

static const unsigned char P0[] = {
    DN(___,0,0x000),
    DN(___,0,0x000),
    DN(___,0,0x000),
    DN(___,0,0x000),
    DN(___,0,0x000),
    DN(___,0,0x000),
    DN(___,0,0x000),
    DN(___,0,0x000),
    DN(___,0,0x000),
    DN(___,0,0x000),
    DN(___,0,0x000),
    DN(___,0,0x000),
    DN(___,0,0x000),
    DN(___,0,0x000),
    DN(___,0,0x000),
    DN(___,0,0x000),
    DN(___,0,0x000),
    DN(___,0,0x000),
    DN(___,0,0x000),
    DN(___,0,0x000),
    DN(___,0,0x000),
    DN(___,0,0x000),
    DN(___,0,0x000),
    DN(___,0,0x000),
    DN(___,0,0x000),
    DN(___,0,0x000),
    DN(___,0,0x000),
    DN(___,0,0x000),
    DN(___,0,0x000),
    DN(___,0,0x000),
    DN(___,0,0x000),
    DN(___,0,0x000),
    DN(___,0,0x000),
    DN(___,0,0x000),
    DN(___,0,0x000),
    DN(___,0,0x000),
    DN(___,0,0x000),
    DN(___,0,0x000),
    DN(___,0,0x000),
    DN(___,0,0x000),
    DN(___,0,0x000),
    DN(___,0,0x000),
    DN(___,0,0x000),
    DN(___,0,0x000),
    DN(___,0,0x000),
    DN(___,0,0x000),
    DN(___,0,0x000),
    DN(___,0,0x000),
    DN(___,0,0x000),
    DN(___,0,0x000),
    DN(___,0,0x000),
    DN(___,0,0x000),
    DN(___,0,0x000),
    DN(___,0,0x000),
    DN(___,0,0x000),
    DN(___,0,0x000),
    DN(___,0,0x000),
    DN(___,0,0x000),
    DN(___,0,0x000),
    DN(___,0,0x000),
    DN(___,0,0x000),
    DN(___,0,0x000),
    DN(___,0,0x000),
    DN(___,0,0x000),
};
static const unsigned char P1[] = {
    DN(B_4,2,0xC0F),
    DN(___,0,0xE00),
    DN(A_4,3,0xC0F),
    DN(___,0,0xE00),
    DN(E_4,2,0xC0F),
    DN(___,0,0xE00),
    DN(A_4,3,0xC0F),
    DN(A_4,3,0xC0B),
    DN(A_4,3,0xC08),
    DN(A_4,3,0xC04),
    DN(___,0,0xE00),
    DN(___,0,0x000),
    DN(___,0,0x000),
    DN(___,0,0x000),
    DN(___,0,0x000),
    DN(___,0,0x000),
    DN(G_4,4,0xC0F),
    DN(___,0,0xE00),
    DN(E_4,3,0xC0F),
    DN(___,0,0xE00),
    DN(A_4,4,0xC0F),
    DN(___,0,0xE00),
    DN(G_4,3,0xC0F),
    DN(G_4,3,0xC0B),
    DN(G_4,3,0xC08),
    DN(G_4,3,0xC04),
    DN(___,0,0xE00),
    DN(___,0,0x000),
    DN(___,0,0x000),
    DN(___,0,0x000),
    DN(___,0,0x000),
    DN(___,0,0x000),
    DN(G_4,2,0xC0F),
    DN(G_4,2,0xC0B),
    DN(G_4,2,0xC08),
    DN(G_4,2,0xC04),
    DN(D_4,2,0xC0F),
    DN(D_4,2,0xC0B),
    DN(D_4,2,0xC08),
    DN(D_4,2,0xC04),
    DN(G_4,2,0xC0F),
    DN(G_4,2,0xC0B),
    DN(G_4,2,0xC08),
    DN(G_4,2,0xC04),
    DN(___,0,0xE00),
    DN(___,0,0x000),
    DN(___,0,0x000),
    DN(___,0,0x000),
    DN(G_4,2,0xC0F),
    DN(G_4,2,0xC0B),
    DN(G_4,2,0xC08),
    DN(G_4,2,0xC04),
    DN(D_4,2,0xC0F),
    DN(D_4,2,0xC0B),
    DN(D_4,2,0xC08),
    DN(D_4,2,0xC04),
    DN(G_4,2,0xC0F),
    DN(G_4,2,0xC0B),
    DN(G_4,2,0xC08),
    DN(G_4,2,0xC04),
    DN(___,0,0xE00),
    DN(___,0,0x000),
    DN(___,0,0x000),
    DN(___,0,0x000),
};
static const unsigned char P2[] = {
    DN(___,0,0x000),
    DN(___,0,0x000),
    DN(___,0,0x000),
    DN(___,0,0x000),
    DN(___,0,0x000),
    DN(___,0,0x000),
    DN(B_4,14,0xC0F),
    DN(B_4,14,0xC0B),
    DN(B_4,14,0xC08),
    DN(B_4,14,0xC04),
    DN(D_5,14,0xC0F),
    DN(D_5,14,0xC0B),
    DN(D_5,14,0xC08),
    DN(D_5,14,0xC04),
    DN(___,0,0xE00),
    DN(___,0,0x000),
    DN(___,0,0x000),
    DN(___,0,0x000),
    DN(___,0,0x000),
    DN(___,0,0x000),
    DN(___,0,0x000),
    DN(___,0,0x000),
    DN(D_5,14,0xC0F),
    DN(D_5,14,0xC0B),
    DN(D_5,14,0xC08),
    DN(D_5,14,0xC04),
    DN(B_4,14,0xC0F),
    DN(B_4,14,0xC0B),
    DN(B_4,14,0xC08),
    DN(B_4,14,0xC04),
    DN(___,0,0xE00),
    DN(___,0,0x000),
    DN(B_4,14,0xC0F),
    DN(___,0,0xE00),
    DN(B_4,14,0xC0F),
    DN(___,0,0xE00),
    DN(___,0,0x000),
    DN(___,0,0x000),
    DN(D_5,14,0xC0F),
    DN(___,0,0xE00),
    DN(___,0,0x000),
    DN(___,0,0x000),
    DN(B_4,14,0xC0F),
    DN(B_4,14,0xC0B),
    DN(B_4,14,0xC08),
    DN(B_4,14,0xC04),
    DN(___,0,0xE00),
    DN(___,0,0x000),
    DN(B_4,14,0xC0F),
    DN(___,0,0xE00),
    DN(B_4,14,0xC0F),
    DN(___,0,0xE00),
    DN(___,0,0x000),
    DN(___,0,0x000),
    DN(D_5,14,0xC0F),
    DN(___,0,0xE00),
    DN(___,0,0x000),
    DN(___,0,0x000),
    DN(B_4,14,0xC0F),
    DN(B_4,14,0xC0B),
    DN(B_4,14,0xC08),
    DN(B_4,14,0xC04),
    DN(___,0,0xE00),
    DN(___,0,0x000),
};
static const unsigned char P3[] = {
    DN(___,0,0x000),
    DN(___,0,0x000),
    DN(___,0,0x000),
    DN(___,0,0x000),
    DN(___,0,0x000),
    DN(___,0,0x000),
    DN(___,0,0x000),
    DN(___,0,0x000),
    DN(___,0,0x000),
    DN(___,0,0x000),
    DN(___,0,0x000),
    DN(___,0,0x000),
    DN(___,0,0x000),
    DN(___,0,0x000),
    DN(___,0,0x000),
    DN(___,0,0x000),
    DN(___,0,0x000),
    DN(___,0,0x000),
    DN(___,0,0x000),
    DN(___,0,0x000),
    DN(___,0,0x000),
    DN(___,0,0x000),
    DN(___,0,0x000),
    DN(___,0,0x000),
    DN(___,0,0x000),
    DN(___,0,0x000),
    DN(___,0,0x000),
    DN(___,0,0x000),
    DN(___,0,0x000),
    DN(___,0,0x000),
    DN(___,0,0x000),
    DN(___,0,0x000),
    DN(B_5,1,0xC0F),
    DN(___,0,0xE00),
    DN(B_5,1,0xC0F),
    DN(___,0,0xE00),
    DN(Ds6,1,0xC0F),
    DN(___,0,0xE00),
    DN(___,0,0x000),
    DN(___,0,0x000),
    DN(Ds6,1,0xC0F),
    DN(___,0,0xE00),
    DN(B_5,1,0xC0F),
    DN(___,0,0xE00),
    DN(B_5,1,0xC0F),
    DN(___,0,0xE00),
    DN(___,0,0x000),
    DN(___,0,0x000),
    DN(B_5,1,0xC0F),
    DN(___,0,0xE00),
    DN(B_5,1,0xC0F),
    DN(___,0,0xE00),
    DN(Ds6,1,0xC0F),
    DN(___,0,0xE00),
    DN(___,0,0x000),
    DN(___,0,0x000),
    DN(___,0,0x000),
    DN(___,0,0x000),
    DN(___,0,0x000),
    DN(___,0,0x000),
    DN(___,0,0x000),
    DN(___,0,0x000),
    DN(___,0,0x000),
    DN(___,0,0x000),
};

static const unsigned char* const order1[] = {P0};
static const unsigned char* const order2[] = {P1};
static const unsigned char* const order3[] = {P2};
static const unsigned char* const order4[] = {P3};

static const hUGEDutyInstr_t duty_instruments[] = {
    {8,64,240,0,128},
    {8,128,240,0,128},
    {8,192,240,0,128},
    {8,0,240,0,128},
};
static const hUGEWaveInstr_t wave_instruments[] = {
    {0,32,0,0,128},
    {0,32,1,0,128},
    {0,32,2,0,128},
    {0,32,3,0,128},
    {0,32,4,0,128},
    {0,32,5,0,128},
    {0,32,6,0,128},
    {0,32,0,0,128},
    {0,32,1,0,128},
    {0,32,2,0,128},
    {0,32,3,0,128},
    {0,32,4,0,128},
    {0,32,5,0,128},
    {0,32,6,0,128},
};
static const hUGENoiseInstr_t noise_instruments[] = {
    {240,0,0,0,0},
};

static const unsigned char waves[] = {
    165,215,201,225,188,154,118,49,12,186,222,96,27,202,3,147,
    240,225,210,195,180,165,150,135,120,105,90,75,60,45,30,15,
    253,236,219,202,185,168,151,134,121,104,87,70,53,36,19,2,
    222,254,220,186,154,169,135,119,136,135,101,86,84,50,16,18,
    171,205,239,237,203,160,18,62,220,186,188,222,254,220,50,16,
    255,238,221,204,187,170,153,136,119,102,85,68,51,34,17,0,
    255,255,255,255,255,255,255,255,0,0,0,0,0,0,0,0,
};

const hUGESong_t music = {7, &order_cnt, order1, order2, order3,order4, duty_instruments, wave_instruments, noise_instruments, NULL, waves};
